<?xml version="1.0" encoding="UTF-8" standalone="no"?>
<!-- Created with Inkscape (http://www.inkscape.org/) -->

<svg
   version="1.1"
   id="svg82"
   width="237.33333"
   height="96"
   viewBox="0 0 237.33333 96"
   xmlns="http://www.w3.org/2000/svg"
   xmlns:svg="http://www.w3.org/2000/svg">
  <defs
     id="defs86" />
  <g
     id="g88">
    <path
       style="fill:#000000;stroke-width:1.33333"
       d="m 218.96106,79.158068 c -3.46192,-5.596396 -7.62918,-11.746396 -9.2606,-13.666667 L 206.73426,62 l -7.4255,7.820835 c -16.19378,17.055908 -22.27446,20.081313 -26.91319,13.390492 -1.31756,-1.900438 -6.08239,-8.137496 -10.58849,-13.860131 -9.60678,-12.200357 -15.4326,-23.125091 -14.87251,-27.889263 0.33303,-2.832618 1.34481,-3.577712 6.13723,-4.519528 3.33258,-0.654925 8.2239,-0.597644 11.66666,0.136626 5.70831,1.217461 5.9282,1.146713 5.9282,-1.907335 0,-2.999628 -0.45209,-3.172763 -8.33333,-3.191352 -14.13237,-0.03333 -18.27235,-4.496375 -13.89315,-14.977284 1.59499,-3.817363 2.80526,-4.750645 7.07531,-5.456063 9.22775,-1.524437 11.68007,-0.994143 16.69209,3.609535 4.43884,4.077172 4.95276,5.297483 5.75296,13.660297 0.4833,5.050744 1.50428,10.46408 2.26888,12.029636 0.83134,1.702186 0.98714,5.186186 0.38758,8.666667 -0.55143,3.201111 -1.12307,10.020201 -1.27031,15.153535 C 179.19944,69.8 178.62201,75.05 178.0635,76.333333 c -2.24114,5.149651 2.67219,1.828034 14.29892,-9.666666 15.29704,-15.123319 17.38268,-15.492198 24.50086,-4.333334 2.68978,4.216667 5.90296,9.166667 7.14037,11 4.29344,6.361048 6.85217,12.250552 6.13467,14.120343 -1.5723,4.097313 -5.15667,1.437033 -11.17726,-8.295608 z M 172,57.300332 C 172,46.94144 171.88693,46.5577 168.45184,45.251653 164.534,43.762095 156.39322,43.162324 155.27472,44.280831 153.5381,46.017453 168.06404,67.905401 171,67.975965 c 0.55,0.0132 1,-4.790816 1,-10.675633 z M 168.39802,24.19948 c 2.20318,-0.869524 2.13431,-1.194169 -0.84738,-3.995335 -2.65642,-2.495569 -4.12006,-2.884824 -8.0647,-2.144805 -4.57624,0.858508 -6.43589,3.879604 -3.93038,6.385104 1.14632,1.146328 9.73221,0.982556 12.84246,-0.244964 z M 58.239566,79.275796 C 44.437995,78.324779 32.137996,77.107717 30.906233,76.571216 29.674472,76.034715 23.866666,75.236713 18,74.797879 L 7.3333332,74 6.3591294,62.666667 C 5.8233174,56.433333 5.6135938,50.689899 5.893077,49.903477 c 0.722937,-2.034229 62.999325,-1.3972 73.440255,0.751224 4.977981,1.024316 12.179427,1.332702 19.063937,0.816367 14.591731,-1.094372 16.292761,-0.15846 16.192561,8.909177 -0.13167,11.914242 -1.62159,17.61303 -4.61956,17.669374 -1.45207,0.02729 -3.42245,0.533122 -4.37863,1.12407 -3.00255,1.85568 -21.32994,1.8952 -47.352074,0.102107 z m 48.427104,-7.756368 c 0,-0.997648 0.36139,-4.447648 0.8031,-7.666667 L 108.27287,58 95.786281,58.451253 c -6.867622,0.24819 -15.629018,-0.119901 -19.469767,-0.81798 -8.803904,-1.600161 -8.904463,-0.485286 -0.784731,8.70006 l 6.187912,7 H 94.19318 c 9.6299,0 12.47349,-0.413517 12.47349,-1.813905 z M 61.333332,70.327875 c 0,-0.91967 -2.249999,-4.490896 -4.999999,-7.936059 l -5,-6.263935 -12,-0.07553 c -6.6,-0.04154 -15.15,-0.453887 -19,-0.916325 l -7,-0.840799 v 6.701925 6.701927 l 9,0.794473 c 4.95,0.436962 12.3,1.320191 16.333333,1.962732 11.736925,1.869784 22.666666,1.807867 22.666666,-0.128413 z m 14.666667,1.24602 c 0,-0.234358 -3.45,-4.074463 -7.666667,-8.533567 -6.093794,-6.444159 -8.203018,-7.905809 -10.28101,-7.124541 -2.351584,0.884132 -1.896619,1.741809 4.526744,8.533568 C 67.326318,69.468873 70.772716,72 72.860075,72 c 1.726959,0 3.139924,-0.191747 3.139924,-0.426105 z M 47.333333,33.333333 C 46.880107,32.6 44.894698,31.967421 42.92131,31.927603 37.955093,31.827395 22.131898,22.49526 21.517328,19.304055 21.245017,17.890059 20.126974,16.078536 19.032788,15.278448 17.938601,14.478359 17.267452,12.663399 17.541345,11.245204 17.932414,9.2202787 19.32331,8.5926704 24.019666,8.3220173 40.974546,7.3448997 64.670619,6.5312019 87.715109,6.1347839 111.51815,5.7253169 113.67447,5.8845524 116.71511,8.2763193 c 4.31224,3.3920107 4.76751,13.5030487 0.70588,15.6767687 -4.40769,2.358925 -14.62595,1.653237 -18.767977,-1.296143 l -3.758641,-2.676388 -3.78052,3.146872 c -4.868672,4.05264 -11.673445,7.220482 -20.632284,9.604992 -8.258997,2.198239 -21.941514,2.553428 -23.148235,0.600912 z m 20.002194,-7.260316 c 9.132639,-2.154216 12.838545,-3.890949 19.372493,-9.078713 l 4.625312,-3.672362 -27.333333,0.574087 c -15.033333,0.315748 -29.344278,1.0055 -31.802099,1.532783 l -4.468768,0.958695 7.135434,4.442798 c 4.129995,2.571496 8.927485,4.455483 11.390077,4.472914 2.340055,0.01656 4.625464,0.630114 5.07869,1.363448 1.136417,1.838761 6.540018,1.638298 16.002194,-0.59365 z M 112.79168,17.131061 C 113.78806,15.518876 109.9678,12 107.22114,12 c -1.88073,0 -3.5636,3.700539 -2.48011,5.453656 1.07211,1.734715 6.92408,1.500223 8.05065,-0.322595 z"
       id="path706" />
  </g>
</svg>
