<?xml version="1.0" encoding="UTF-8" standalone="no"?>
<!-- Created with Inkscape (http://www.inkscape.org/) -->

<svg
   version="1.1"
   id="svg22"
   width="376"
   height="117.33333"
   viewBox="0 0 376 117.33333"
   xmlns="http://www.w3.org/2000/svg"
   xmlns:svg="http://www.w3.org/2000/svg">
  <defs
     id="defs26" />
  <g
     id="g28">
    <path
       style="fill:#000000;stroke-width:1.33333"
       d="M 94.311541,104.42539 C 93.749557,103.55936 92.957993,88.873973 92.552512,71.791198 91.783227,39.381491 91.552931,38.020938 84.491424,24.167437 c -2.788443,-5.47046 -1.092156,-6.928003 6.96124,-5.981486 4.766001,0.560151 7.817903,0.306042 9.099576,-0.757651 1.54301,-1.280584 2.1856,-1.116899 3.21501,0.818943 1.23798,2.328104 -1.05745,9.403014 -5.543538,17.086089 C 97.199724,37.087062 96.438432,49.639947 96,71.999998 95.633333,90.699997 94.873527,105.29143 94.311541,104.42539 Z M 262.06441,97.437557 c -0.49676,-0.803782 -0.45698,-2.806053 0.0884,-4.449492 0.54539,-1.643437 1.03412,-6.288067 1.08607,-10.321401 0.0907,-7.036635 0.22932,-7.314583 3.42779,-6.869901 1.83333,0.254888 3.93333,0.943197 4.66666,1.529577 0.73334,0.586379 5.87844,2.627835 11.43358,4.536567 9.46557,3.252352 11.65993,3.470424 34.9213,3.470424 15.10914,0 25.14351,0.521704 25.64512,1.333333 0.79336,1.283694 -27.94272,2.209501 -44.21136,1.424385 -3.96072,-0.191142 -8.76773,0.518 -11.33333,1.671926 -4.14028,1.862165 -17.63768,6.905065 -22.63816,8.458072 -1.20057,0.372862 -2.58931,0.02029 -3.08607,-0.78349 z m 94.07583,-32.348195 c -0.27211,-29.847938 -0.57225,-33.957455 -2.70236,-36.999999 -3.01963,-4.31307 -6.49483,-11.938134 -7.02905,-15.422697 -0.37708,-2.459558 0.39372,-2.681012 9.9245,-2.8513779 l 10.33334,-0.1847116 v 5.2672795 c 0,2.897002 -1.45403,8.380122 -3.23116,12.18471 -3.03411,6.495574 -3.28907,8.889276 -4.18078,39.250765 -0.52229,17.783333 -1.36785,32.333333 -1.87901,32.333333 -0.51116,0 -1.06713,-15.109786 -1.23548,-33.577302 z M 163.47599,95.224281 c -0.44514,-1.159978 -0.80932,-3.44341 -0.80932,-5.074294 0,-1.630884 -1.48007,-4.97136 -3.28904,-7.42328 -1.80896,-2.451921 -2.97356,-4.968488 -2.58798,-5.592373 0.38559,-0.623886 6.29219,-1.134336 13.12578,-1.134336 9.4176,0 12.82645,-0.484055 14.08457,-2 0.91292,-1.1 2.256,-2 2.98463,-2 0.72862,0 4.18554,-2.1 7.68204,-4.666667 3.49649,-2.566666 7.32688,-4.666666 8.51197,-4.666666 4.75099,0 2.62721,2.068169 -12.89255,12.554941 -6.42078,4.33855 -14.40822,11.08855 -17.74988,14.999999 -6.4948,7.602234 -7.78856,8.316595 -9.06022,5.002676 z M 144,69.594357 c 0,-10.167033 -0.46741,-13.655761 -2,-14.927692 -1.1,-0.912919 -2,-2.241748 -2,-2.952953 0,-0.711207 -1.21783,-2.841313 -2.70628,-4.733572 -1.53953,-1.957209 -2.15179,-3.783159 -1.42013,-4.235345 1.63208,-1.00868 19.95892,-0.690066 21.01432,0.365336 0.43366,0.433661 -1.03639,3.661288 -3.26676,7.172505 -3.62042,5.699482 -4.11584,7.742249 -4.62028,19.050695 -0.46699,10.468597 -0.94992,12.741476 -2.78295,13.097765 C 144.26929,82.809852 144,81.25125 144,69.594357 Z M 10.666667,67.313834 V 53.294338 l 7.666666,6.018659 c 11.10079,8.714589 17.199787,8.126329 16.545036,-1.5958 -0.16238,-2.411127 0.0053,-4.383865 0.372642,-4.383865 1.029444,0 10.50184,5.398558 12.748989,7.265972 3.6308,3.017246 7.174091,3.667164 22.529364,4.132371 21.610381,0.654718 21.244456,2.673259 -0.684116,3.77376 -18.152421,0.910994 -18.318996,0.948543 -24.572751,5.53922 -7.073317,5.192292 -11.250776,6.087864 -9.99891,2.143587 2.173664,-6.848607 -8.15055,-6.450588 -16.426446,0.63327 -2.899076,2.4815 -5.925667,4.511819 -6.72576,4.511819 -0.958496,0 -1.454714,-4.782199 -1.454714,-14.019497 z m 199.477173,5.24688 c -0.44447,-1.158273 -0.46527,-3.47202 -0.0463,-5.141659 0.45755,-1.82299 -0.0413,-3.838959 -1.24881,-5.04643 -1.46148,-1.461488 -1.61037,-2.411064 -0.54508,-3.47636 0.80611,-0.806101 1.36092,-4.234132 1.23293,-7.617846 -0.128,-3.383715 0.11387,-6.71301 0.53751,-7.398435 0.42361,-0.685424 3.28023,0.74766 6.34801,3.184633 10.94448,8.693989 12.26852,9.171365 26.05582,9.394239 10.44572,0.168857 12.85533,0.582692 12.85533,2.207809 0,1.568792 -2.87472,2.244665 -13.33333,3.134791 -12.85959,1.094469 -13.62608,1.343189 -21.57226,6.999999 -4.53136,3.225866 -8.51717,5.86521 -8.8573,5.86521 -0.34012,0 -0.98208,-0.947678 -1.42655,-2.105951 z m 50.64015,-4.370887 c -0.3887,-0.628926 -0.11174,-3.178926 0.61552,-5.666666 0.72722,-2.48774 1.20756,-7.264951 1.06738,-10.616024 -0.14016,-3.351073 0.14868,-6.745786 0.6419,-7.543806 0.804,-1.300916 18.52865,6.733308 23.05114,10.448623 0.8213,0.674711 13.1213,1.279986 27.33334,1.345056 14.21204,0.06507 26.89006,0.677472 28.1734,1.360894 4.63822,2.470021 2.14776,3.44997 -7.33334,2.885529 -13.10856,-0.780397 -47.69981,-0.457693 -51,0.475781 -1.46666,0.414855 -6.45853,2.486744 -11.09302,4.604199 -9.09316,4.154573 -10.37427,4.457217 -11.45632,2.706414 z M 195.33333,54.570728 c -14.04801,-8.073283 -14.88845,-8.328125 -24.74092,-7.502129 -10.68594,0.89587 -11.33465,0.03393 -5.29393,-7.034101 2.1774,-2.547692 4.69192,-6.447692 5.58784,-8.666667 3.30855,-8.194454 5.19791,-7.495194 10.39241,3.846279 3.52802,7.702938 4.58046,8.775501 14.59507,14.874055 5.93608,3.614872 10.79287,7.023847 10.79287,7.575497 0,1.97717 -4.78178,0.672195 -11.33334,-3.092934 z M 263.66801,37.782842 C 262.75344,36.1701 263.302,13.58689 264.27948,12.609406 c 0.45237,-0.452364 2.22455,0.0919 3.93817,1.209482 1.71363,1.117578 7.45323,3.874217 12.75468,6.125861 9.57363,4.066138 9.81323,4.095088 35.33334,4.269128 14.13188,0.09637 24.49433,0.418608 23.02766,0.716072 -1.46666,0.297465 -4.02878,1.217793 -5.69361,2.045173 -2.2736,1.129932 -3.41844,1.112825 -4.6,-0.06873 -2.06701,-2.067026 -5.98963,-2.012723 -6.76195,0.09361 -0.48888,1.333333 -0.96444,1.333333 -2.37777,0 -2.04051,-1.925007 -30.0612,-2.397781 -30.78889,-0.519481 -0.52711,1.360564 -17.90072,9.519478 -20.2708,9.519478 -0.90218,0 -2.29259,0.65228 -3.08982,1.449509 -0.79724,0.797231 -1.73434,0.947231 -2.08248,0.333334 z"
       id="path1540" />
  </g>
</svg>
