<?xml version="1.0" encoding="UTF-8" standalone="no"?>
<!-- Created with Inkscape (http://www.inkscape.org/) -->

<svg
   version="1.1"
   id="svg32"
   width="512"
   height="108"
   viewBox="0 0 512 108"
   xmlns="http://www.w3.org/2000/svg"
   xmlns:svg="http://www.w3.org/2000/svg">
  <defs
     id="defs36" />
  <g
     id="g38">
    <path
       style="fill:#000000;stroke-width:1.33333"
       d="M 80.751304,97.084509 C 80.441547,96.121363 79.820224,87.533333 79.370589,78 77.981,48.537456 76.771931,38.307033 74.091716,33.333333 71.034168,27.659412 69.172924,20.041097 70.807081,19.888889 c 5.183231,-0.482778 18.677331,-0.182256 19.289168,0.429583 0.419604,0.419603 -0.930396,3.369603 -3,6.555555 l -3.762916,5.79264 0.39106,32.218966 c 0.260718,21.480184 -0.07573,32.507458 -1.009417,33.08451 -0.770263,0.476048 -1.653915,0.07751 -1.963672,-0.885634 z m 316.078976,0.138447 c -0.79332,-2.538773 -3.53772,-45.286783 -3.51501,-54.751472 0.0133,-5.377776 -1.13952,-10.329545 -4.03399,-17.333333 C 387.05265,19.745501 385.10265,14.733333 384.94795,14 c -0.16487,-0.781526 3.6263,-1.381231 9.16062,-1.449068 5.19306,-0.06365 10.21014,-0.590523 11.14907,-1.17082 3.32216,-2.0532081 3.66421,2.217647 0.67187,8.389019 -8.83664,18.224582 -8.42072,15.527194 -7.33916,47.597032 0.54349,16.115277 0.50266,29.850834 -0.0907,30.52346 -0.62705,0.710794 -1.32616,0.431601 -1.66935,-0.666667 z m 13.12552,0.555199 c -1.32225,-0.455255 -1.66613,-17.178934 -0.37969,-18.465368 0.33529,-0.335294 5.15148,0.873796 10.70265,2.686864 9.55917,3.12212 11.71993,3.295584 40.85047,3.279449 16.9166,-0.0093 30.97161,-0.451 31.23337,-0.981401 0.26176,-0.530402 0.0947,-12.664366 -0.37124,-26.964366 -0.79035,-24.255636 -1.10439,-26.690622 -4.681,-36.293824 -2.1086,-5.661604 -3.43528,-10.692365 -2.94817,-11.1794694 0.4871,-0.4871047 2.60641,-0.17288 4.70956,0.6982774 2.97316,1.23152 4.62229,1.220166 7.41226,-0.05103 2.69558,-1.2281906 3.96822,-1.2550542 5.1153,-0.107976 1.49146,1.491459 1.2117,2.363912 -4.46216,13.915931 C 496.51172,25.588624 496,40.342853 496,57.102416 v 30.471932 l -31.38893,0.884055 c -26.62578,0.749904 -32.64506,1.30313 -39.66667,3.645734 -4.55276,1.518923 -9.47773,3.523671 -10.9444,4.454994 -1.46667,0.931322 -3.28656,1.479884 -4.0442,1.219024 z M 155.38621,91.743367 c -2.10809,-5.268672 -5.82286,-9.666694 -9.0827,-10.75331 -0.79747,-0.265821 -1.06082,-1.497329 -0.58523,-2.736684 C 146.41088,76.44846 148.35835,76 155.50367,76 c 8.3533,0 9.3948,-0.349079 16.37517,-5.488483 4.09997,-3.018665 8.73803,-6.995156 10.30679,-8.836645 1.70382,-2.000043 3.50078,-2.947371 4.46288,-2.352764 1.07184,0.662439 -1.92012,4.253795 -8.94456,10.73646 -8.21055,7.577289 -10.93046,11.022041 -12.24472,15.507912 -1.88219,6.424247 -4.9145,11.766853 -6.67852,11.766853 -0.63682,0 -2.16432,-2.515485 -3.3945,-5.589966 z m 204.11984,3.559266 c -0.46642,-1.215469 -0.5363,-2.714341 -0.15529,-3.330825 0.381,-0.616484 0.0829,-1.497748 -0.66235,-1.958367 -0.74529,-0.460617 -1.36869,-5.752076 -1.38533,-11.758797 -0.0515,-18.579167 -2.46299,-43.631851 -4.61519,-47.946041 -1.11168,-2.228402 -2.02122,-5.385988 -2.02122,-7.01686 0,-1.630874 -0.92574,-3.733514 -2.05719,-4.672535 -1.13145,-0.939021 -1.88145,-2.609303 -1.66667,-3.711733 0.30639,-1.572612 2.76024,-2.042082 11.39052,-2.179236 10.24636,-0.162837 10.99956,0.01176 10.9935,2.548474 -0.004,1.497808 -2.12375,6.849055 -4.71147,11.89166 l -4.70495,9.168374 0.15035,22.831626 c 0.0827,12.557395 0.70892,25.795552 1.39163,29.418128 1.21285,6.435695 -0.19275,11.28593 -1.94634,6.716132 z M 264,81.254781 c 0,-15.56422 -1.13089,-15.033449 15.33333,-7.196488 l 9.33334,4.44266 24.95814,0.346927 c 13.72699,0.190809 25.37699,-0.07191 25.8889,-0.583811 1.52373,-1.523736 3.15296,-1.060353 3.15296,0.896763 0,1.465532 -5.20008,1.946671 -26.25418,2.429173 -18.49726,0.423907 -26.40886,1.065782 -26.77777,2.172502 -0.28799,0.863954 -1.33407,1.570826 -2.32461,1.570826 -1.72447,0 -16.10426,5.574114 -20.97678,8.131338 C 264.18447,94.592449 264,93.627149 264,81.254781 Z m 199.64035,-0.268834 c -0.3515,-0.915972 -0.7305,-6.695931 -0.84224,-12.844351 -0.11174,-6.14842 -0.59728,-11.816655 -1.07899,-12.596076 -0.48171,-0.779421 -0.73565,-6.144764 -0.56431,-11.922985 0.31194,-10.519544 -0.72592,-14.308211 -7.2579,-26.494924 -3.1521,-5.880862 -2.54231,-6.638407 4.5828,-5.693229 3.99297,0.529687 7.58242,0.269398 9.3531,-0.678242 2.29103,-1.2261149 3.0208,-1.1537344 3.60056,0.35711 0.74302,1.936251 -2.93525,15.042033 -4.96218,17.680417 -0.61704,0.803182 -0.83975,12.926588 -0.49491,26.940901 0.55083,22.385221 -0.22355,30.756156 -2.33593,25.251379 z M 128.77559,78.444211 c -0.30753,-0.97765 -0.8584,-7.60484 -1.22416,-14.72709 -0.36576,-7.12225 -1.1596,-13.72225 -1.7641,-14.666666 -1.63888,-2.560483 -4.41098,-10.756423 -4.43392,-13.109279 -0.0162,-1.662043 1.77866,-2.058823 9.31326,-2.058823 10.96773,0 11.38618,0.808576 5.66666,10.94971 -3.34888,5.937817 -3.66666,7.704313 -3.66666,20.382301 0,9.912332 -0.47632,14.042049 -1.66597,14.444211 -0.91628,0.309749 -1.91758,-0.236715 -2.22511,-1.214364 z M 7.9817937,65.666667 c -0.010013,-4.95 -0.3799922,-10.35 -0.822175,-12 -1.1304399,-4.218222 1.1165376,-3.835278 10.3274823,1.760076 8.99441,5.463814 13.047388,5.526256 15.573164,0.239924 C 34.023816,53.65 35.33014,52 35.963205,52 c 0.633067,0 4.350327,1.635455 8.260579,3.634344 5.628827,2.877411 9.414004,3.739549 18.174168,4.139476 16.581015,0.756969 11.686861,5.239657 -5.985929,5.482673 -3.073388,0.04227 -5.972591,0.699158 -6.442674,1.459767 -0.884661,1.431412 -13.63682,7.950407 -15.55222,7.950407 -0.596088,0 -1.083796,-1.77889 -1.083796,-3.953088 0,-7.579227 -5.703406,-7.712698 -16.248517,-0.380246 -3.427572,2.383334 -6.873845,4.333334 -7.6583831,4.333334 -0.8703413,0 -1.4335305,-3.50863 -1.4446392,-9 z M 197.91195,65 c 2.17613,-10.700356 2.20096,-12.505015 0.22424,-16.301712 -2.34924,-4.512204 -1.00746,-6.927641 2.70661,-4.872348 12.26805,6.788905 23.36339,9.507393 38.8038,9.507393 18.4286,0 16.5326,2.166099 -2.97993,3.404443 -13.00747,0.825507 -15.76444,1.460995 -24.3706,5.617473 -5.33718,2.577668 -10.02258,5.202238 -10.41203,5.832376 -0.38944,0.63014 -1.64077,1.145708 -2.78073,1.145708 -1.63026,0 -1.88454,-0.92492 -1.19136,-4.333333 z m 65.65713,-2.503848 c -0.38685,-1.479303 -0.37153,-4.734485 0.034,-7.233741 0.48167,-2.96812 0.009,-5.656115 -1.36345,-7.750431 -4.97879,-7.598588 5.12594,-6.229441 23.35609,3.164645 4.11384,2.119883 6.11925,2.346283 12.12492,1.368836 8.96001,-1.45828 37.94699,-2.15557 39.16055,-0.942018 C 337.37433,51.596549 333.21319,52 327.63424,52 c -5.57893,0 -10.51435,0.6 -10.96757,1.333333 -0.46231,0.748022 -6.80004,1.333334 -14.43727,1.333334 -12.08735,0 -14.73128,0.454161 -23.58799,4.051816 -5.4861,2.228498 -10.96345,4.595302 -12.17186,5.259562 -1.6632,0.914258 -2.36803,0.554148 -2.90047,-1.481893 z m 143.09759,-1.91714 c 0,-1.148211 0.58942,-3.189009 1.30984,-4.535107 0.86944,-1.624572 0.8348,-3.810136 -0.10307,-6.500414 -0.77708,-2.22913 -1.21651,-5.290687 -0.97651,-6.80346 0.41168,-2.594864 0.88904,-2.47294 8.43638,2.154766 l 8,4.905264 15,-0.226332 c 9.2098,-0.138964 15.00002,0.285642 15.00002,1.09997 0,0.760684 -4.23106,1.326301 -9.9213,1.326301 -5.45672,0 -10.2421,0.519036 -10.63416,1.153415 -0.39207,0.634377 -3.06246,1.468562 -5.9342,1.853742 -2.87174,0.385182 -7.52564,2.266146 -10.34202,4.17992 -5.77468,3.923991 -9.83498,4.498643 -9.83498,1.391935 z M 177.33333,51.571187 c -4.03333,-1.667703 -8.45244,-3.665986 -9.82022,-4.44063 -1.64848,-0.933604 -4.43044,-0.993929 -8.2517,-0.178933 -3.17064,0.676231 -7.61824,1.038755 -9.88356,0.805609 l -4.11876,-0.4239 2.70379,-5.281922 c 1.48708,-2.905058 2.70379,-7.519647 2.70379,-10.254644 0,-5.690375 1.71281,-7.473706 4.2534,-4.428526 0.96062,1.151418 2.94788,3.414599 4.41612,5.02929 1.46824,1.614692 3.65462,4.46762 4.85865,6.339841 2.16903,3.372764 14.35859,10.595961 17.88129,10.595961 1.00652,0 2.47227,1.2 3.2572,2.666667 1.79226,3.348856 1.03859,3.308457 -8,-0.428813 z m 84.58219,-20.023464 c 0.51009,-4.082606 0.27688,-8.621524 -0.55544,-10.810712 -0.78908,-2.075432 -1.148,-4.060199 -0.79761,-4.410592 0.3504,-0.350392 5.61718,1.016392 11.70397,3.037298 8.39577,2.787523 13.38029,3.628314 20.65169,3.483528 5.27164,-0.10496 9.95706,0.411462 10.41203,1.14762 0.52148,0.843771 -2.40505,1.338468 -7.91813,1.338468 -4.80995,0 -8.74536,0.488872 -8.74536,1.086384 0,1.247603 -6.55587,4.580779 -17.81519,9.057723 l -7.8152,3.107481 z M 306,24 c 0.45323,-0.733333 5.85323,-1.333333 12,-1.333333 6.14677,0 11.54677,0.6 12,1.333333 0.52755,0.853588 -3.79016,1.333333 -12,1.333333 -8.20984,0 -12.52755,-0.479745 -12,-1.333333 z"
       id="path1401" />
  </g>
</svg>
