<?xml version="1.0" encoding="UTF-8" standalone="no"?>
<!-- Created with Inkscape (http://www.inkscape.org/) -->

<svg
   version="1.1"
   id="svg112"
   width="210.66667"
   height="97.333336"
   viewBox="0 0 210.66667 97.333336"
   xmlns="http://www.w3.org/2000/svg"
   xmlns:svg="http://www.w3.org/2000/svg">
  <defs
     id="defs116" />
  <g
     id="g118">
    <path
       style="fill:#000000;stroke-width:1.33333"
       d="M 10.584038,88.957598 C 6.8926365,86.078637 6.5820549,82.7061 9.43217,76.449709 c 2.507249,-5.503751 2.565557,-6.242243 0.65919,-8.348756 -1.1502481,-1.27101 -2.0913599,-3.013682 -2.0913599,-3.872606 0,-2.021885 4.3412629,-2.020416 6.3638319,0.0021 1.196222,1.196222 2.370652,1.196222 4.996071,0 1.887732,-0.860088 4.416261,-1.563812 5.618956,-1.563812 1.703295,0 1.407257,0.813582 -1.339099,3.68016 -2.271462,2.370897 -3.140748,4.303213 -2.443442,5.431477 1.538304,2.489029 11.516944,4.454926 17.267267,3.401834 6.49093,-1.188725 8.93275,-3.039508 13.489058,-10.22406 4.153518,-6.549416 7.833738,-8.544472 11.823195,-6.409379 3.548826,1.899274 7.134579,10.045714 6.638996,15.083077 -0.350792,3.56564 -1.131592,4.401101 -5.057666,5.411733 -3.010164,0.774862 -6.391522,0.671216 -9.615595,-0.29474 -5.018424,-1.503556 -11.000735,-0.821261 -14.081795,1.606059 -0.920456,0.725153 -4.750305,1.022824 -8.510779,0.661491 l -6.837223,-0.656971 -2.024808,5.15466 c -1.834169,4.669343 -2.476521,5.150668 -6.822554,5.112256 -2.63876,-0.02332 -5.73493,-0.773323 -6.880376,-1.666667 z M 20,81.380248 c 0,-2.495758 -0.918454,-4.444631 -2.491356,-5.286422 -3.101304,-1.659768 -4.17531,-0.654989 -4.17531,3.906176 0,4.190303 0.904898,5.333334 4.222222,5.333334 C 19.37627,85.333336 20,84.324656 20,81.380248 Z m 46.13832,-8.593237 c 1.034269,-2.695262 -3.142003,-10.120343 -5.692236,-10.120343 -4.016103,0 -7.679203,8.322437 -4.890527,11.111111 1.685072,1.685074 9.849249,0.920736 10.582763,-0.990768 z m 46.52835,5.199479 C 108.19256,76.699711 103.06312,76.331398 97.070134,76.866598 85.000611,77.944461 84.217137,77.044342 83.996125,61.846102 83.471719,25.784499 84.028008,8.0944289 85.666668,8.7225828 86.950293,9.2146399 87.228036,16.19165 86.875164,39.080538 86.331333,74.355931 85.818645,73.073334 99.715762,71.204006 l 8.950908,-1.204004 4.39361,-8.973656 c 5.15121,-10.521011 5.62689,-10.466914 14.79212,1.682208 l 5.8524,7.757745 24.1476,-0.615836 c 30.48482,-0.777453 30.81427,-0.80992 30.81427,-3.036627 0,-2.904425 -10.82153,-5.557408 -24.3128,-5.960466 -6.77204,-0.202319 -12.70753,-0.762594 -13.19,-1.245055 -0.48247,-0.482463 -0.11827,-1.791704 0.80939,-2.909425 2.18009,-2.626847 16.39429,-2.741291 24.31348,-0.195756 3.14229,1.010054 10.98186,3.504252 17.42126,5.54266 6.4394,2.038408 11.50723,4.308516 11.26184,5.044683 -0.42504,1.27514 -4.42636,2.568606 -18.65564,6.030622 -3.54506,0.862523 -16.38201,1.54557 -29.0469,1.54557 -17.38015,0 -23.38598,0.445238 -25.64754,1.901365 -4.62639,2.978728 -11.68997,3.50737 -18.95309,1.418456 z m 14,-6.033399 c 0,-4.521085 -7.14675,-13.971136 -9.47683,-12.531073 -0.46176,0.285385 -1.23619,2.999238 -1.72095,6.030784 -1.08899,6.810116 0.65747,9.213867 6.69437,9.213867 3.64047,0 4.50341,-0.519974 4.50341,-2.713578 z M 172.5391,43.481693 c -0.86931,-2.265376 0.29896,-4.815025 2.20626,-4.815025 1.68152,0 1.6088,4.957071 -0.0881,6.00582 -0.73852,0.456427 -1.69168,-0.07943 -2.11816,-1.190795 z"
       id="path289" />
  </g>
</svg>
