<?xml version="1.0" encoding="UTF-8" standalone="no"?>
<!-- Created with Inkscape (http://www.inkscape.org/) -->

<svg
   version="1.1"
   id="svg122"
   width="129.33333"
   height="128"
   viewBox="0 0 129.33333 128"
   xmlns="http://www.w3.org/2000/svg"
   xmlns:svg="http://www.w3.org/2000/svg">
  <defs
     id="defs126" />
  <g
     id="g128">
    <path
       style="fill:#000000;stroke-width:1.33333"
       d="m 14.666666,117.31524 c 0,-0.74328 0.538407,-2.39328 1.196459,-3.66667 4.949985,-9.57861 5.662413,-13.33486 4.884929,-25.755599 -1.923566,-30.730024 -0.852363,-34.72618 10.386515,-38.747148 6.010159,-2.150275 6.480803,-2.12299 15.054036,0.872733 4.867452,1.700821 9.216247,3.624155 9.663987,4.274073 0.44774,0.64992 3.05795,2.866498 5.800466,4.925728 6.666928,5.005894 9.329728,3.929767 8.771034,-3.544672 -0.375886,-5.028742 -0.08144,-5.722332 2.590315,-6.101641 2.441391,-0.346605 3.171628,0.358145 3.84148,3.707401 0.779294,3.896468 5.933995,9.387222 8.812692,9.387222 0.761424,0 0.925283,-1.533758 0.391727,-3.666667 -1.894352,-7.572752 -2.311032,-12.333333 -1.0795,-12.333333 1.551173,0 5.674457,4.404264 5.715506,6.104988 0.01631,0.675589 1.128459,2.657321 2.47145,4.403848 1.822128,2.36963 2.998738,2.863824 4.636387,1.94735 2.009768,-1.124722 1.970064,-1.668536 -0.47145,-6.457425 C 94.121536,46.366917 93.965626,44 96.761903,44 c 2.791489,0 5.001717,2.360641 7.870457,8.406045 2.27905,4.802748 2.27899,5.113611 -0.002,7.633627 -1.50677,1.664964 -4.09432,2.626995 -7.065759,2.626995 -2.578598,0 -5.742607,0.95408 -7.031131,2.120177 -2.389291,2.162279 -7.867205,1.55184 -7.867205,-0.876695 0,-1.671274 -6.292547,-1.594176 -7.333334,0.08985 -1.849288,2.992212 -10.277914,1.356429 -16.48803,-3.199908 -9.465976,-6.945148 -12.847436,-6.886267 -14.770974,0.257207 -2.036425,7.562706 -6.101381,11.309121 -11.577079,10.669865 -2.473486,-0.288765 -4.539118,-0.195509 -4.59029,0.207237 -0.05117,0.402746 -0.244393,6.432266 -0.429376,13.398932 C 27.292598,92.3 26.350149,99.8 25.383249,102 c -4.664295,10.61273 -5.38325,12.55392 -5.38325,14.53484 0,1.24294 -1.111895,2.13183 -2.666666,2.13183 -1.466667,0 -2.666667,-0.60814 -2.666667,-1.35143 z M 38.895011,63.126683 c 3.018948,-2.73211 3.232903,-9.572134 0.334209,-10.684466 -2.436241,-0.934873 -9.040437,3.548728 -9.629153,6.537251 -0.438753,2.227264 3.061972,6.353865 5.390183,6.353865 0.806542,0 2.563685,-0.992992 3.904761,-2.20665 z m 22.549431,35.162693 c 0.305556,-0.207509 1.605556,-1.180976 2.88889,-2.163259 1.997309,-1.528772 2.333333,-1.474437 2.333333,0.37729 0,1.329838 -1.112977,2.16326 -2.888889,2.16326 -1.588888,0 -2.638888,-0.16978 -2.333334,-0.377291 z M 72.996157,87.592027 c 9.436192,-8.312511 17.279462,-14.258694 18.80783,-14.258694 0.841139,0 1.529344,-0.6 1.529344,-1.333333 0,-0.733333 1.170185,-1.333333 2.600413,-1.333333 1.430227,0 3.080227,-0.75 3.666667,-1.666667 1.165689,-1.822103 3.116379,-3.086573 12.899599,-8.361775 6.86111,-3.699573 9.79295,-3.095562 8.26972,1.703711 -0.61011,1.922293 -1.69139,2.445419 -4.10207,1.984589 -1.9243,-0.367853 -5.24095,0.535008 -8.04683,2.190514 -2.62529,1.548962 -5.63896,2.816294 -6.69705,2.816294 -1.05808,0 -1.923783,0.6 -1.923783,1.333334 C 99.999997,71.4 99.374377,72 98.609731,72 96.8795,72 84.691314,80.943853 77.812783,87.261077 c -2.830365,2.5994 -6.197846,4.72905 -7.483293,4.732552 -1.686458,0.0045 -0.944005,-1.220897 2.666667,-4.401602 z M 114.66666,68 c 0,-0.733333 0.63541,-1.333333 1.41203,-1.333333 0.77661,0 1.0412,0.6 0.58797,1.333333 -0.45322,0.733333 -1.08863,1.333333 -1.41202,1.333333 -0.32339,0 -0.58798,-0.6 -0.58798,-1.333333 z M 13.6,29.066667 c -0.88,-0.88 -1.6,-2.749979 -1.6,-4.155508 0,-1.999482 0.65274,-2.380582 3,-1.75154 1.65,0.442182 3.685806,0.812161 4.524014,0.822174 0.838208,0.01 1.895013,0.985011 2.348455,2.166662 0.596352,1.554069 0.252978,1.929164 -1.241155,1.35581 -1.183264,-0.45406 -2.389737,0.05207 -2.824438,1.18488 -0.9192,2.395398 -2.084434,2.499964 -4.206876,0.377522 z m 12.622222,-7.28889 c -1.648135,-1.648133 -0.919045,-4.741318 0.948637,-4.024622 1.01064,0.387818 2.551032,0.002 3.423095,-0.857348 1.215076,-1.19738 2.031921,-0.957711 3.495806,1.0257 1.050631,1.423494 1.910239,3.073494 1.910239,3.666666 0,1.29308 -8.509296,1.458087 -9.777777,0.189604 z"
       id="path150" />
  </g>
</svg>
