<?xml version="1.0" encoding="UTF-8" standalone="no"?>
<!-- Created with Inkscape (http://www.inkscape.org/) -->

<svg
   version="1.1"
   id="svg52"
   width="177.33333"
   height="84"
   viewBox="0 0 177.33333 84"
   xmlns="http://www.w3.org/2000/svg"
   xmlns:svg="http://www.w3.org/2000/svg">
  <defs
     id="defs56" />
  <g
     id="g58">
    <path
       style="fill:#000000;stroke-width:1.33333"
       d="m 43.666666,74.143939 c -1.283333,-0.97419 -2.333333,-2.19514 -2.333333,-2.713226 0,-0.518084 -1.531196,-2.949472 -3.402658,-5.403085 -2.262626,-2.966457 -3.49111,-6.39874 -3.666666,-10.244371 L 33.999999,50 l 6,-0.435019 c 3.3,-0.23926 8.187197,0.216008 10.860439,1.011708 7.30532,2.174455 9.495262,0.807986 8.466244,-5.282724 -0.502666,-2.975246 -0.28205,-5.370182 0.541577,-5.879212 1.738883,-1.074688 8.13174,2.991999 8.13174,5.172842 0,2.129482 5.265977,6.88401 8.811756,7.955929 4.684713,1.416228 6.399478,-2.158261 3.067461,-6.394235 -2.863872,-3.640824 -2.650581,-7.500408 0.412269,-7.460186 0.939683,0.0124 4.083728,2.432221 6.986768,5.377512 2.903041,2.945292 6.125673,5.185196 7.161405,4.977564 1.035732,-0.207632 2.560518,-2.457264 3.388411,-4.999183 1.959894,-6.017547 6.770831,-8.729685 13.309331,-7.503056 5.22687,0.980567 7.52926,4.277445 7.52926,10.78142 0,6.238849 9.7441,10.691364 16.03244,7.325944 2.46028,-1.316699 2.45431,-1.468481 -0.23701,-6.029933 -2.36741,-4.012468 -2.53324,-5.228652 -1.16374,-8.534922 2.26571,-5.469926 7.78141,-7.467278 15.35474,-5.560289 3.29827,0.830515 8.41593,1.1232 11.37259,0.650413 10.93101,-1.747938 14.56692,8.58065 6.22494,17.683315 -3.68193,4.017685 -5.53361,4.926112 -11.13892,5.464711 -3.96972,0.38144 -7.96005,-0.01613 -9.74389,-0.970811 -2.55627,-1.368077 -3.60344,-1.186188 -6.80708,1.182375 -4.32329,3.196341 -15.6015,3.892006 -18.36032,1.132504 -1.07713,-1.0774 -6.10062,-1.709671 -14.2083,-1.788298 -7.355701,-0.07133 -13.3106,-0.75948 -14.400638,-1.664132 -1.425475,-1.183038 -2.844128,-1.050854 -6.087632,0.567218 -4.333891,2.162029 -13.782415,1.635766 -16.990835,-0.946352 -0.909504,-0.731964 -2.91077,-0.458062 -5.153112,0.70528 -2.469527,1.281205 -5.950167,1.66627 -10.663995,1.17976 -8.997344,-0.928608 -10.031587,0.7773 -4.791328,7.902945 4.607916,6.265793 5.049392,8.392205 1.98638,9.567593 -2.880396,1.105312 -3.534135,0.995372 -6.224284,-1.046742 z M 110.87053,48.751693 c 2.01372,-4.419642 0.54774,-7.710428 -3.1979,-7.178542 -3.07004,0.435948 -4.63427,4.66435 -3.15325,8.523817 1.14615,2.986819 4.72246,2.229299 6.35115,-1.345275 z m 53.68356,-2.777841 C 165.45165,42.397665 164.68764,40 162.65053,40 c -1.74571,0 -5.70725,8.956856 -4.68973,10.603244 1.38174,2.235699 5.61653,-0.737712 6.59329,-4.629392 z m -21.27771,-4.548388 c 0.42192,-0.682661 0.15732,-1.618071 -0.58797,-2.078689 -0.74529,-0.460618 -1.35508,0.09792 -1.35508,1.241202 0,2.342035 0.80008,2.686879 1.94305,0.837487 z M 8.9425768,60.333333 C 8.6411025,59.783333 8.3044825,55.241628 8.1945325,50.240655 8.0845825,45.239681 7.3958331,40.029127 6.6639783,38.661644 4.2944295,34.234101 5.2378662,31.055987 9.9999998,27.423731 15.547844,23.192184 15.893246,19.859837 11.395259,13.962672 8.6373846,10.346913 8.3895917,9.3102137 9.8167218,7.3584971 12.38402,3.8475077 16.255132,5.4233791 19.608658,11.344646 23.64038,18.463393 23.466002,20.124287 18,26.666667 12.616774,33.109968 12.720104,32.59332 15.333333,40 c 2.376119,6.734639 2.523205,11.434535 0.536233,17.134369 -1.364962,3.915535 -5.490016,5.820532 -6.9269892,3.198964 z M 31.661453,41 c -1.013095,-3.011023 0.603664,-6.333333 3.082032,-6.333333 3.114616,0 4.320366,1.981432 3.252728,5.345265 C 37.068101,42.936151 32.550002,43.640864 31.661453,41 Z"
       id="path1123" />
  </g>
</svg>
