<?xml version="1.0" encoding="UTF-8" standalone="no"?>
<!-- Created with Inkscape (http://www.inkscape.org/) -->

<svg
   version="1.1"
   id="svg102"
   width="140"
   height="90.666664"
   viewBox="0 0 140 90.666664"
   xmlns="http://www.w3.org/2000/svg"
   xmlns:svg="http://www.w3.org/2000/svg">
  <defs
     id="defs106" />
  <g
     id="g108">
    <path
       style="fill:#000000;stroke-width:1.33333"
       d="m 62.333333,81.711659 c -2.627093,-0.397972 -3.666666,-1.330488 -3.666666,-3.289067 0,-2.226509 0.556518,-2.557969 3,-1.786784 8.881894,2.80321 10.615685,2.492626 24.946929,-4.468901 2.537477,-1.232602 5.760844,-4.205456 7.163036,-6.606341 2.600265,-4.452268 2.481335,-6.388401 -1.292992,-21.049495 -0.59818,-2.323587 0.372,-3.354064 5.490768,-5.832016 3.613222,-1.749129 6.721812,-4.336657 7.421792,-6.17774 1.5273,-4.017095 5.65129,-4.100597 8.29626,-0.167983 l 2.01772,3 1.78444,-4 c 2.35378,-5.276253 4.15741,-6.415238 6.08333,-3.841606 C 125.81781,30.484882 128,28.576742 128,23.625014 v -4.217607 l 2.92955,2.92955 c 2.82228,2.82227 2.84946,3.097493 0.74257,7.515687 -1.20283,2.522375 -3.57113,4.985119 -5.26288,5.472763 -1.69175,0.487644 -5.00286,1.756133 -7.35803,2.818865 -2.43718,1.099736 -5.74035,1.566247 -7.66667,1.082772 C 109.43306,38.737252 108,38.948103 108,39.725021 c 0,0.741094 -1.8,1.974927 -4,2.741851 -4.403715,1.535144 -4.927172,3.528501 -1.9576,7.454633 4.60683,6.090769 1.74636,14.810448 -7.761079,23.658408 -9.090054,8.459525 -16.811158,10.424783 -31.947988,8.131746 z M 10.737401,52.751894 c -2.1492503,-2.589687 -0.203644,-5.991397 6.198756,-10.837935 9.581687,-7.253221 9.96273,-7.796244 8.384148,-11.948224 -1.975096,-5.1949 -0.794302,-7.299069 4.096008,-7.299069 3.045334,0 4.354344,0.717656 4.864022,2.666667 0.791784,3.027785 2.795652,3.334258 7.571901,1.158053 1.821075,-0.829736 4.398584,-1.091284 5.727797,-0.581217 1.9673,0.754924 1.30121,1.495852 -3.58164,3.984043 -4.328806,2.205864 -5.894444,3.759335 -5.624932,5.581218 0.205404,1.388513 0.714731,4.627886 1.131839,7.198607 0.962947,5.934846 -1.595691,8.302162 -11.273687,10.430703 -9.508289,2.091217 -15.567242,1.969012 -17.494212,-0.352846 z m 12.499415,-3.418562 c 1.298095,0 4.431704,-0.983005 6.963575,-2.184457 5.340161,-2.534072 5.88428,-7.518695 0.898238,-8.228685 -2.951516,-0.420284 -13.507816,6.288395 -15.504125,9.853094 -1.757797,3.138798 0.355673,5.018437 2.976187,2.646905 1.268273,-1.147772 3.368029,-2.086857 4.666125,-2.086857 z m 38.096517,-9.387871 c 0,-8.539657 0.802603,-14.538862 2.752583,-20.574711 4.547443,-14.0758694 7.845596,-14.3954036 10.438847,-1.011344 1.46119,7.541369 1.378817,8.715668 -0.841763,12 -2.749341,4.066394 -6.013887,10.782094 -8.413168,17.307259 -2.69106,7.318693 -3.936499,4.875841 -3.936499,-7.721204 z"
       id="path428" />
  </g>
</svg>
