<?xml version="1.0" encoding="UTF-8" standalone="no"?>
<!-- Created with Inkscape (http://www.inkscape.org/) -->

<svg
   version="1.1"
   id="svg12"
   width="209.33333"
   height="120"
   viewBox="0 0 209.33333 120"
   xmlns="http://www.w3.org/2000/svg"
   xmlns:svg="http://www.w3.org/2000/svg">
  <defs
     id="defs16" />
  <g
     id="g18">
    <path
       style="fill:#000000;stroke-width:1.33333"
       d="m 74.269132,109.82469 c -0.463087,-0.46309 -0.201341,-2.03902 0.581657,-3.50206 0.789556,-1.4753 1.202516,-7.038885 0.927179,-12.491359 -0.554073,-10.972239 -0.04975,-11.475059 7.212076,-7.190482 2.461693,1.452435 8.645989,4.295144 13.74288,6.317132 L 106,96.634264 l 44.43277,0.384545 c 34.30435,0.296888 44.30989,0.75648 43.89369,2.016202 -0.66366,2.008769 -21.27648,3.197479 -59.84002,3.450869 -27.96985,0.18379 -28.12806,0.20498 -47.533037,6.36665 -6.11378,1.94131 -11.316375,2.34005 -12.684271,0.97216 z M 10.296395,93.720903 c -0.9869937,-1.749694 -0.245876,-24.390247 0.800794,-24.463631 0.534581,-0.03748 5.906405,2.252567 11.937388,5.088992 10.03707,4.720527 11.81204,5.131404 20.965422,4.853164 13.202809,-0.401333 17.333333,0.405143 17.333333,3.384295 0,2.089024 -1.896578,2.482777 -15.905501,3.302186 -12.54977,0.73406 -17.261639,1.580332 -22.333333,4.01116 -8.393638,4.023015 -12.066686,5.120454 -12.798103,3.823834 z M 129.33333,82.666667 V 76 h -8.38451 c -7.44443,0 -20.70047,3.307207 -23.175162,5.781895 -0.486624,0.486625 -1.83477,0.883749 -2.995882,0.8825 -1.637501,-0.0017 -2.168353,-1.640118 -2.366271,-7.302958 -0.140338,-4.015377 0.270112,-7.625321 0.912111,-8.022098 0.641999,-0.396778 3.474798,0.201877 6.29511,1.330342 5.580844,2.233011 27.096454,6.051854 28.714604,5.096606 1.62094,-0.956892 1.1582,-4.686795 -1.33333,-10.747279 l -2.33334,-5.675679 -9.08765,-0.0049 c -4.99821,-0.0028 -10.09995,0.536765 -11.3372,1.19892 -1.23724,0.662156 -4.3478,1.412156 -6.912341,1.666667 -4.653213,0.461797 -4.664298,0.449748 -5.389389,-5.858226 -1.153332,-10.033485 0.0075,-10.788042 9.51296,-6.183536 7.46251,3.61489 9.10838,3.90094 20.43375,3.551371 L 134.2043,51.333333 131.19189,42 c -4.68057,-14.501788 -4.49212,-15.333333 3.47477,-15.333333 5.8485,0 6.66667,0.338024 6.66667,2.754321 0,1.514877 -0.51725,3.764877 -1.14944,5 -0.6322,1.235124 -1.49673,5.334972 -1.9212,9.110776 -0.678,6.030963 -0.45733,6.947324 1.81611,7.54184 3.52497,0.921803 3.25824,3.662648 -1.22922,12.631085 -2.09938,4.195755 -4.60946,11.678644 -5.57793,16.628644 -0.96848,4.95 -2.2508,9 -2.8496,9 -0.59879,0 -1.08872,-3 -1.08872,-6.666666 z m 23.95857,4.6 c -0.30084,-9.198444 -1.46356,-18.536403 -2.45874,-19.74646 -0.68764,-0.836114 -1.67455,-4.370207 -2.19311,-7.85354 l -0.94284,-6.333334 h 8.81807 c 4.84993,0 8.81805,0.504167 8.81805,1.120371 0,0.616203 -1.93272,4.966203 -4.29493,9.666667 -2.97687,5.923513 -4.30672,10.469054 -4.33334,14.811574 -0.0211,3.445903 -0.7884,7.015903 -1.70506,7.933334 -0.91667,0.917429 -1.68531,1.098054 -1.7081,0.401388 z M 182.66666,66.574489 C 173.40258,58.606045 170.9952,55.698364 171.63529,53.250643 172.44856,50.140716 186.45442,38 189.22886,38 c 3.4623,0 3.2909,5.271223 -0.23273,7.157009 -4.82547,2.582514 -6.69223,6.298296 -4.73704,9.429063 0.88827,1.42234 2.98341,3.318408 4.65588,4.213483 3.79349,2.030221 5.00928,5.604946 3.11199,9.150081 -1.95588,3.654588 -3.83343,3.378752 -9.3603,-1.375147 z M 10.082238,56.333333 c 1.29998,-7.828565 1.3082,-10.700501 0.04337,-15.151932 -0.8027503,-2.82519 -0.4878062,-3.61667 1.66294,-4.179104 1.459285,-0.381612 3.263267,-0.08382 4.00885,0.661767 3.626475,3.626475 17.23473,6.630327 30.869269,6.814003 13.370108,0.180114 14.018892,0.321456 14.419892,3.141472 0.515868,3.627818 -1.219646,4.077514 -18.419892,4.772852 -11.517768,0.465617 -13.500181,0.954792 -21.856202,5.393169 -5.054244,2.684609 -9.772371,4.881107 -10.484725,4.881107 -0.8038545,0 -0.8962277,-2.402574 -0.243501,-6.333334 z m 144.697692,-8.1217 c -2.54897,-4.762801 -5.40803,-14.257238 -5.4272,-18.022844 -0.0172,-3.36929 0.35483,-3.717286 3.20799,-3.001189 C 156.24826,28.113115 160,27.023935 160,25.027876 c 0,-2.024339 -45.11244,0.01801 -53.6907,2.430713 -11.524995,3.24149 -26.776136,7.380096 -30.043629,8.152751 -2.822438,0.667413 -2.982314,0.418836 -2,-3.109636 C 75.547725,27.896565 75.420251,16.74842 74.027429,11.666667 73.132355,8.4009551 73.374801,8 76.244563,8 c 1.772156,0 3.792102,0.5523288 4.488769,1.2273975 1.097764,1.0637315 9.948739,4.0326585 28.922648,9.7016705 3.49416,1.043984 16.2801,1.216896 42.66666,0.577008 20.72254,-0.502532 38.87736,-1.046981 40.34402,-1.209885 1.87651,-0.208427 2.66667,0.493968 2.66667,2.370476 0,2.507721 -1.01328,2.688909 -17,3.039836 -9.35,0.205242 -17,0.835242 -17,1.4 0,0.564757 0.62769,1.654522 1.39487,2.421702 0.97094,0.97094 0.56572,4.48898 -1.33334,11.57549 -1.5005,5.599338 -2.7282,10.491646 -2.7282,10.871794 0,1.685644 -2.69521,0.462516 -3.88673,-1.763856 z"
       id="path1679" />
  </g>
</svg>
