<?xml version="1.0" encoding="UTF-8" standalone="no"?>
<!-- Created with Inkscape (http://www.inkscape.org/) -->

<svg
   version="1.1"
   id="svg92"
   width="188"
   height="124"
   viewBox="0 0 188 124"
   xmlns="http://www.w3.org/2000/svg"
   xmlns:svg="http://www.w3.org/2000/svg">
  <defs
     id="defs96" />
  <g
     id="g98">
    <path
       style="fill:#000000;stroke-width:1.33333"
       d="m 36.666667,116.48754 c -4.054379,-0.92284 -9.165852,-5.26782 -8.143371,-6.92223 0.618987,-1.00154 2.266891,-0.63798 5.19176,1.1454 5.176444,3.15623 12.385457,3.36583 18.078775,0.52563 10.531972,-5.25404 25.631353,-23.848081 25.56035,-31.476135 -0.01227,-1.319169 -2.549373,-3.502602 -6.172501,-5.31208 -8.816689,-4.403268 -10.762587,-10.353129 -5.418064,-16.566508 2.695095,-3.133233 3.733132,-3.481069 7.999768,-2.680644 5.696801,1.068727 11.170627,6.000987 12.40686,11.17936 1.540139,6.451386 2.540995,6.851407 10.864377,4.34227 5.035189,-1.51789 9.262999,-3.942666 12.425349,-7.126306 4.7528,-4.784796 4.8024,-4.952785 5.86876,-19.877604 0.5915,-8.278614 1.18725,-19.104772 1.3239,-24.058126 0.25862,-9.37426 0.86851,-11.1925895 3.25866,-9.7153917 0.90058,0.5565897 1.42204,7.9154417 1.42204,20.0678857 0,33.365478 3.72827,42.190731 20.25552,47.947291 C 156.5302,83.164524 172,77.036276 172,65.9132 172,64.623743 170.51192,64 167.43564,64 c -6.08831,0 -12.76897,-5.5409 -12.76897,-10.590495 0,-2.109796 1.46338,-5.265793 3.4212,-7.378308 3.0443,-3.28486 4.10436,-3.614526 9.62266,-2.992534 C 176.79753,44.0629 180,48.275059 180,59.202835 c 0,9.855652 -2.38413,15.428972 -8.64195,20.20204 -3.96272,3.022518 -5.76529,3.403166 -16.897,3.568124 -11.12805,0.164902 -13.23577,-0.205311 -19.70322,-3.460786 -7.72131,-3.886616 -12.6786,-8.394946 -14.07752,-12.802577 -1.08186,-3.408609 -5.1125,-3.505667 -7.51768,-0.181025 -2.92415,4.042005 -14.332498,9.577669 -21.483998,10.424658 -4.37832,0.518547 -6.806327,1.493971 -7.251368,2.913154 -3.64122,11.611372 -15.379376,26.017967 -25.760597,31.616757 -2.566667,1.38425 -4.977931,2.92775 -5.358364,3.43 -0.903136,1.19232 -13.206459,2.35626 -16.641636,1.57436 z M 79.185544,69.572463 c 0.37194,-0.601814 -0.483831,-3.001814 -1.901713,-5.333334 -4.641876,-7.632953 -10.788184,-4.032752 -6.570252,3.848526 1.377548,2.573973 7.171262,3.589388 8.471965,1.484808 z M 170.4,57.066667 c 2.50147,-2.501466 1.88139,-6.13099 -1.21535,-7.113855 -3.7023,-1.175068 -6.67361,1.830728 -5.65609,5.721751 0.84912,3.247021 4.31447,3.949076 6.87144,1.392104 z M 18.926535,97.207075 C 11.141042,95.724471 8.0887181,91.81712 8.0887181,83.333333 c 0,-9.217384 3.6343369,-12.769121 17.5779489,-17.178448 2.891074,-0.91423 2.982696,-3.924321 0.246556,-8.1002 -1.895664,-2.893148 -1.892528,-3.560462 0.03424,-7.286421 1.941006,-3.753493 2.689057,-4.101597 8.81405,-4.101597 5.328404,0 7.360302,0.667269 9.96576,3.272726 3.436098,3.436099 3.774254,5.014358 2.012736,9.39394 -0.988472,2.457596 -1.268596,2.326659 -3.572953,-1.670097 -2.696427,-4.67678 -6.626375,-6.737251 -8.767056,-4.596569 -2.136565,2.136565 0.164588,6.91045 4.644185,9.634657 2.847948,1.731941 3.538792,2.706115 2.214286,3.122413 -1.058826,0.332794 -4.819111,1.40257 -8.356188,2.377278 -11.85421,3.26665 -19.583036,14.451565 -13.907747,20.126854 2.416777,2.416778 3.933376,2.618744 15.228163,2.027955 13.546774,-0.708584 15.437197,0.499511 7.038021,4.497724 -5.857352,2.788241 -14.994976,3.751144 -22.334185,2.353527 z M 168,28 c 0,-3.087235 0.5978,-4 2.61976,-4 1.44087,0 3.24849,1.174808 4.01695,2.610684 1.12234,2.097133 0.88654,2.883976 -1.19878,4 C 169.2506,32.851681 168,32.251288 168,28 Z"
       id="path567" />
  </g>
</svg>
