<?xml version="1.0" encoding="UTF-8" standalone="no"?>
<!-- Created with Inkscape (http://www.inkscape.org/) -->

<svg
   version="1.1"
   id="svg72"
   width="244"
   height="82.666664"
   viewBox="0 0 244 82.666664"
   xmlns="http://www.w3.org/2000/svg"
   xmlns:svg="http://www.w3.org/2000/svg">
  <defs
     id="defs76" />
  <g
     id="g78">
    <path
       style="fill:#000000;stroke-width:1.33333"
       d="M 3.1591349,74.026838 C 1.9026324,70.752446 6.7315591,61.242657 10.349161,59.867247 c 1.736774,-0.66032 5.775163,-1.200582 8.974199,-1.200582 4.685991,0 6.350064,0.67841 8.562152,3.490625 l 2.745725,3.490624 3.647962,-4.157291 c 5.134706,-5.851618 11.459817,-5.437463 13.872488,0.90834 0.973394,2.560222 1.652813,2.996535 2.831194,1.818154 0.852748,-0.852748 2.630452,-1.550452 3.950452,-1.550452 1.32,0 2.4,-0.87889 2.4,-1.953088 0,-2.326404 4.041635,-4.713579 7.98038,-4.713579 1.965262,0 3.414492,1.417179 4.772216,4.666667 1.072422,2.566666 2.391806,4.647584 2.931964,4.624262 1.781782,-0.07693 5.186147,-3.240161 6.851522,-6.366217 1.333449,-2.503005 2.552098,-2.999248 6.54867,-2.666666 3.999662,0.332837 5.506883,1.333258 8.126864,5.394218 2.633634,4.082121 3.565336,4.696109 5.141355,3.388131 1.058656,-0.878608 2.475026,-3.044587 3.147486,-4.813288 1.04981,-2.761222 1.82138,-3.096072 5.45806,-2.368736 5.59075,1.118149 10.37482,4.348638 10.37482,7.0057 0,2.150001 1.85919,2.092952 10.31713,-0.316578 2.14482,-0.611025 3.23832,-0.186753 3.88901,1.508912 1.40252,3.654933 -4.06292,7.276928 -10.98061,7.276928 -4.89814,0 -6.27255,-0.622425 -8.73805,-3.957203 l -2.92569,-3.957202 -5.11807,4.623869 c -2.81494,2.543128 -6.263007,4.623869 -7.662373,4.623869 -2.423148,0 -8.569414,-6.030857 -9.747181,-9.564157 -0.341496,-1.024488 -2.796553,0.491944 -6.396125,3.950737 -3.213044,3.087382 -6.877544,5.61342 -8.143334,5.61342 -1.26579,0 -3.722108,-1.815281 -5.458484,-4.033958 -3.088074,-3.945829 -3.247332,-3.988919 -7.28967,-1.972335 -2.272943,1.133893 -4.869226,2.949175 -5.769516,4.033959 -2.408002,2.901464 -5.767334,2.410394 -9.310374,-1.360999 -3.786528,-4.030575 -5.502889,-4.162601 -8.666666,-0.666667 -1.48996,1.646388 -4.106623,2.666667 -6.839076,2.666667 -3.603347,0 -4.824076,-0.770224 -6.569156,-4.144839 -1.90381,-3.681559 -2.61553,-4.050759 -6.367574,-3.303139 -2.323306,0.462934 -4.383559,1.278112 -4.578339,1.811505 -2.635494,7.217162 -7.5174221,10.593237 -9.1533871,6.32998 z M 174,69.110744 c -4.28965,-2.372443 -17.11203,-15.876814 -21.9436,-23.110745 -2.76681,-4.142534 -4.50388,-8.43356 -4.58788,-11.333333 l -0.13519,-4.666667 7.33334,-0.02154 C 158.7,29.966588 165.15,29.460303 169,28.853338 c 5.97044,-0.941259 7,-1.531804 7,-4.015115 0,-3.147708 -3.42285,-8.838224 -5.3162,-8.838224 -0.64075,0 -1.35673,1.333143 -1.59107,2.962542 -0.50305,3.49788 -7.66316,6.108252 -17.19365,6.268322 C 144.57939,25.353803 140,21.472813 140,15.146484 c 0,-6.6981464 4.33885,-9.3952769 16.83728,-10.466434 9.62135,-0.8245812 11.04383,-0.6530373 12.67808,1.5289125 1.01245,1.3517371 3.63567,3.3785701 5.82939,4.5040735 6.49032,3.329898 8.66124,9.469585 7.76254,21.95363 -0.86818,12.060406 -3.22493,18.609558 -8.29354,23.047004 -3.44067,3.012201 -3.44996,3.070161 -0.81375,5.074391 6.14752,4.673776 20.18435,-2.645443 27.72132,-14.454729 1.91817,-3.005479 3.30828,-3.666667 7.70896,-3.666667 7.20616,0 11.01608,2.261726 21.07552,12.511332 5.6656,5.772696 8.23957,9.360366 7.70852,10.744297 -0.43852,1.142737 -1.59956,2.077704 -2.58011,2.077704 -2.82848,0 -10.42126,-6.159107 -13.17504,-10.687331 -2.15109,-3.537198 -9.26256,-7.979335 -12.77418,-7.979335 -0.58704,0 -1.95631,1.421765 -3.04283,3.15948 -1.08652,1.737713 -5.9812,6.537713 -10.87707,10.666666 -7.47245,6.301924 -9.72012,7.500677 -14,7.466641 C 178.96096,70.60382 175.46667,69.9219 174,69.110744 Z m -5.32623,-18.131163 c 1.63088,-1.191828 4.65956,-9.586732 4.65956,-12.915369 0,-2.046537 -0.75957,-2.287576 -5,-1.586677 -2.75,0.454546 -6.96944,0.833052 -9.37652,0.841122 l -4.37653,0.01467 5.53672,7.333333 c 5.70219,7.552489 6.27863,7.977768 8.55677,6.312916 z M 159,16.722674 c 3.62296,-0.611201 5,-1.507385 5,-3.254034 0,-2.100265 -0.90097,-2.328205 -7,-1.77094 -8.27127,0.755741 -11.11361,2.422214 -8.8282,5.175975 0.84591,1.019259 2.50331,1.592043 3.68311,1.272854 C 153.03471,17.827338 156.25,17.186603 159,16.722674 Z M 37.995175,35.492523 C 29.397309,33.0886 23.485928,29.77347 20.629181,25.753593 c -8.714683,-12.262885 -7.50616,-15.316145 5.906216,-14.9217 4.838866,0.142306 22.023235,0.123308 38.187488,-0.04222 40.027455,-0.409894 45.943785,1.325487 45.943785,13.476263 0,6.293017 -4.92448,10.357014 -9.72712,8.02745 -6.284598,-3.0484 -10.051951,-2.7285 -14.485809,1.230044 L 82.186377,37.333332 62.759856,37.159189 C 52.075268,37.063416 40.931163,36.313411 37.995175,35.492523 Z M 83.666667,25.632355 C 93.241473,17.132261 93.037679,17.06785 59,17.836367 42.316667,18.21305 27.935497,18.553965 27.041847,18.593955 c -2.77991,0.1244 -0.262855,4.056871 4.119728,6.436378 7.074513,3.841077 15.543561,5.313134 31.505092,5.476095 L 78,30.662975 Z M 104,23.428571 c 0,-0.314286 -0.94286,-1.514286 -2.09524,-2.666666 C 98.99608,17.853222 96,18.143165 96,21.333333 c 0,2.074074 0.888889,2.666666 4,2.666666 2.2,0 4,-0.257142 4,-0.571428 z"
       id="path845" />
  </g>
</svg>
