<?xml version="1.0" encoding="UTF-8" standalone="no"?>
<!-- Created with Inkscape (http://www.inkscape.org/) -->

<svg
   version="1.1"
   id="svg2"
   width="220"
   height="124"
   viewBox="0 0 220 124"
   xmlns="http://www.w3.org/2000/svg"
   xmlns:svg="http://www.w3.org/2000/svg">
  <defs
     id="defs6" />
  <g
     id="g8">
    <path
       style="fill:#000000;stroke-width:1.33333"
       d="m 68.662517,114.33333 c 1.900562,-5.85668 2.26054,-13.01284 0.857108,-17.038727 -1.177696,-3.37834 -1.056109,-4.22283 0.705306,-4.898748 1.17057,-0.449191 3.320364,-0.07227 4.777317,0.837622 1.456953,0.909883 7.910808,3.388331 14.341899,5.507662 11.432733,3.767591 12.371093,3.857081 42.174373,4.022061 19.01499,0.10527 31.12329,0.69416 32.18763,1.56546 1.19517,0.97842 2.71144,0.93869 5.06274,-0.13264 1.84612,-0.84114 9.06899,-1.52935 16.05083,-1.52935 h 12.69425 l -0.52709,-39.000003 c -0.42301,-31.298852 -0.93867,-40.040719 -2.61139,-44.270388 -3.03104,-7.664372 -2.19625,-8.581387 7.04882,-7.743075 5.44661,0.493882 7.90902,0.244386 7.90902,-0.801352 0,-0.835185 0.9,-1.5185187 2,-1.5185187 2.8472,0 2.48751,2.8103027 -1.33333,10.4174197 -1.83333,3.650086 -3.33333,7.329179 -3.33333,8.175763 0,0.846584 -0.90726,3.293675 -2.01612,5.437979 -1.63719,3.165982 -2.0331,10.301986 -2.10648,37.968381 l -0.0904,34.069644 -4.22684,-0.21158 c -2.32476,-0.11638 -5.91612,0.46814 -7.9808,1.29892 -2.73131,1.09902 -4.49564,1.11359 -6.47648,0.0535 -1.96891,-1.05372 -3.12579,-1.05377 -4.17938,-1.9e-4 -0.98676,0.98677 -14.38528,1.4721 -41.52352,1.5041 -32.22212,0.038 -40.719274,0.42033 -43.399983,1.95276 -1.833334,1.04803 -4.833334,1.9358 -6.666667,1.97283 -3.557579,0.0718 -12.679528,2.92892 -14.197327,4.44672 -0.502581,0.50258 -2.083762,0.91378 -3.513737,0.91378 -2.095813,0 -2.411181,-0.58171 -1.626419,-3 z M 57.222103,103.66667 C 57.160927,103.48333 56.886832,90.247573 56.613005,74.253867 56.147552,47.067669 55.049068,38.031181 51.727812,34.066667 51.144181,33.37 50.666667,31.788584 50.666667,30.552409 c 0,-1.236174 -0.896304,-3.966174 -1.991786,-6.066666 -1.095482,-2.100492 -1.995482,-5.163878 -2,-6.807526 -0.0075,-2.722416 0.555579,-2.959802 6.325119,-2.666666 3.483333,0.176981 7.983333,-0.139648 10,-0.70362 3.588892,-1.003653 3.666667,-0.904268 3.666667,4.685489 0,3.140991 -1.338464,9.002421 -2.974364,13.025403 -2.745426,6.751509 -3.005487,9.803225 -3.378719,39.647844 C 60.068119,91.294665 59.403131,104 58.62128,104 c -0.708371,0 -1.338,-0.15 -1.399177,-0.33333 z m -45.955,-5.107166 c -0.450063,-0.728217 -0.437334,-3.578933 0.02829,-6.334924 0.465622,-2.755989 0.201743,-6.706953 -0.586397,-8.779917 -1.7560945,-4.61888 0.266046,-7.966622 3.738044,-6.188494 9.034404,4.626826 18.886856,7.190932 28.103956,7.314071 4.512132,0.06028 7.427618,0.721173 7.777777,1.763093 C 50.741249,87.560689 48.442493,88 41.607704,88 c -6.623341,0 -9.756515,0.572739 -10.941037,2 -0.912919,1.1 -2.19831,2 -2.856423,2 -0.658113,0 -3.434645,1.393835 -6.170073,3.097409 -6.643336,4.137351 -9.389313,5.053841 -10.373068,3.462095 z M 100.32635,91.726559 C 99.531435,90.768747 98.467769,88.338439 97.962648,86.325875 97.457527,84.313311 96.528216,82.666667 95.897515,82.666667 94.474225,82.666667 84,68.630856 84,66.7236 c 0,-0.764647 -0.534955,-1.390267 -1.188789,-1.390267 -0.653835,0 -1.579342,-1.556081 -2.056682,-3.457958 -0.688764,-2.744251 0.450979,-5.393871 5.522123,-12.837579 3.514508,-5.158792 8.569419,-11.864579 11.233135,-14.901749 2.663713,-3.037171 5.070603,-6.703371 5.348643,-8.14711 0.69073,-3.58669 4.98047,-4.145621 7.22483,-0.941357 C 112.09706,27.922691 124.05885,36 126.30284,36 c 0.77149,0 3.71896,-2.086079 6.54994,-4.635729 2.83097,-2.549652 6.47398,-4.649652 8.09559,-4.666667 2.60351,-0.02732 2.32075,0.554499 -2.41742,4.974219 -3.36868,3.142278 -5.07614,5.747618 -4.58755,7 0.42803,1.097164 4.81587,3.933712 9.75075,6.30344 9.68413,4.650316 10.96024,4.643722 24.30585,-0.125574 8.14389,-2.910368 11.25231,-2.863274 9.9218,0.150315 -0.5666,1.283333 -1.29432,6.983333 -1.61717,12.666667 -0.32284,5.683333 -0.8316,10.333333 -1.13056,10.333333 -0.90444,0 -5.90775,-3.059155 -13.62932,-8.333333 -4.0261,-2.750004 -8.12287,-5.000004 -9.10396,-5.000004 -3.78526,0 -19.10746,9.973258 -19.10746,12.437088 0,2.208776 4.5252,4.809848 8.44444,4.853841 2.41316,0.02708 3.57951,0.644444 3.22891,1.709071 -0.89961,2.731637 -5.79232,2.666942 -11.31319,-0.149591 -4.82245,-2.460233 -5.47396,-2.498172 -9.49098,-0.552673 -2.37219,1.14889 -5.37698,3.3519 -6.67729,4.895577 -1.30031,1.543677 -5.37681,5.686995 -9.05889,9.207371 -5.28361,5.051577 -6.99932,6.033624 -8.13998,4.659208 z M 112,72.572323 c 3.3,-0.54248 7.85663,-2.393178 10.12585,-4.112659 2.26922,-1.719481 4.4945,-3.126331 4.94506,-3.126331 2.3754,0 15.59576,-11.386382 15.59576,-13.432254 0,-1.64199 -3.0278,-3.837992 -9.74902,-7.070766 C 124.40354,40.735188 121.66986,40.090059 111.33643,39.73728 99.710103,39.340361 99.487648,39.391333 98.551684,42.666667 98.027788,44.5 97.539339,52.515644 97.46624,60.479208 l -0.132907,14.479208 4.333337,-0.699883 C 104.05,73.873599 108.7,73.114804 112,72.572323 Z M 93.459401,69.666667 C 94.620577,48.174964 93.992751,44.598083 89.824045,48.955184 86.46466,52.466391 84,56.858287 84,59.333333 84,62.840865 89.934144,72 92.206651,72 c 0.619674,0 1.183413,-1.05 1.25275,-2.333333 z M 10.086303,65.472975 c -0.4426299,-0.716191 -0.2875014,-3.604412 0.34473,-6.418268 0.632232,-2.813858 0.686061,-6.302291 0.11962,-7.752072 C 9.0835231,47.547575 9.1151665,44 10.615791,44 c 0.705351,0 5.955352,2.220524 11.666666,4.934496 7.511543,3.569428 12.597314,5.062859 18.38421,5.3985 4.4,0.255201 9.468706,0.775903 11.263793,1.157115 6.031017,1.280768 -0.0079,3.13448 -10.281885,3.156138 -5.326618,0.0112 -10.726618,0.558824 -12,1.216876 -3.031071,1.566382 -12.207855,5.101772 -15.869699,6.113863 -1.588285,0.438984 -3.249943,0.212177 -3.692573,-0.504013 z M 71.2,20.561683 V 9.1233657 l 7.4,0.5995231 c 4.07,0.3297382 9.8,1.3127992 12.733333,2.1845812 3.319998,0.986697 20.433357,1.856347 45.333337,2.303705 52.65112,0.945938 52,0.915193 52,2.455492 0,0.857597 -15.85556,1.415769 -44.43792,1.564374 C 95.591836,18.483915 99.775417,17.877064 80.934768,27.412161 75.948891,29.935472 71.718891,32 71.534768,32 71.350645,32 71.2,26.852757 71.2,20.561683 Z"
       id="path1818" />
  </g>
</svg>
