<?xml version="1.0" encoding="UTF-8" standalone="no"?>
<!-- Created with Inkscape (http://www.inkscape.org/) -->

<svg
   version="1.1"
   id="svg62"
   width="220"
   height="54.666668"
   viewBox="0 0 220 54.666668"
   xmlns="http://www.w3.org/2000/svg"
   xmlns:svg="http://www.w3.org/2000/svg">
  <defs
     id="defs66" />
  <g
     id="g68">
    <path
       style="fill:#000000;stroke-width:1.33333"
       d="M 66,44.564478 C 56.109843,42.602397 51.385501,41.07153 44.284349,37.527778 40.193235,35.486153 39.632307,35.495632 35.842963,37.670416 29.713787,41.18808 22.045383,40.67374 15.908169,36.333334 10.494905,32.504925 8.9964735,27.536861 12.268237,24.265097 13.514775,23.018559 14.770948,23.532613 17.934904,26.584025 28.716888,36.982488 40.394963,35.641973 32,24.969506 c -1.466667,-1.864564 -2.666667,-4.345479 -2.666667,-5.513144 0,-3.903728 4.278162,-2.182462 9.598608,3.861885 5.071731,5.761792 7.665286,7.399343 18.897558,11.931785 5.458617,2.202657 12.276158,2.758908 13.277225,1.083302 0.328591,-0.55 -3.827804,-5.8 -9.236433,-11.666667 C 56.461663,18.8 52.028227,13.25 52.018211,12.333334 c -0.01112,-1.017193 1.787954,-1.666667 4.616733,-1.666667 4.210011,0 5.324988,0.916805 12.161549,10 4.139632,5.5 8.007376,10 8.594987,10 0.587609,0 1.719679,-1.97345 2.515709,-4.385446 1.797319,-5.445928 7.987011,-9.282106 14.824472,-9.187742 7.272949,0.100373 9.919249,1.948928 14.184929,9.908794 l 3.75008,6.997728 9.11465,0.666667 c 10.82805,0.791988 12.74119,-0.499483 9.63578,-6.504674 -2.83638,-5.484965 -2.62737,-6.82866 1.06221,-6.82866 2.2303,0 4.6558,2.004767 8.33333,6.887827 5.8986,7.832216 8.60141,9.878149 11.55328,8.745411 1.71553,-0.658312 1.83216,-1.695548 0.69459,-6.177253 -2.76106,-10.877677 1.66446,-15.206609 14.11162,-13.803636 6.28664,0.708596 11.49454,4.874235 11.49454,9.19413 0,1.001102 0.9,1.820188 2,1.820188 2.07065,0 2.46628,1.220969 2.05217,6.333333 -0.30735,3.794134 2.87383,3.937138 10.91421,0.490627 7.20615,-3.088915 11.08662,-8.321235 9.02635,-12.17088 -1.70079,-3.177946 -6.23503,-3.450433 -9.42204,-0.566223 -1.52911,1.383824 -2.60165,1.608415 -3.18368,0.666667 -0.48275,-0.781106 0.0577,-1.420191 1.20096,-1.420191 1.14328,0 2.07869,-0.872812 2.07869,-1.939583 0,-2.557529 7.68319,-3.955132 12.23312,-2.225253 6.30934,2.398808 6.04403,10.808172 -0.487,15.435785 -13.33273,9.447021 -16.2575,10.703054 -26.07768,11.19895 -5.35558,0.270445 -11.37189,-0.172983 -13.3696,-0.985393 -2.44144,-0.992871 -6.03626,-1.088711 -10.9655,-0.29235 -6.22111,1.005075 -8.126,0.78067 -12.55968,-1.4796 -5.03327,-2.565936 -5.5012,-2.582118 -12.66667,-0.438032 -6.62439,1.982186 -8.23669,2.019699 -14.70231,0.342074 C 107.16861,38.985908 106.84683,39.02418 90,43.892125 79.20546,47.011241 78.441195,47.032652 66,44.564478 Z m 29.095815,-9.35648 c 7.403435,-2.522603 7.970775,-5.048519 2.344646,-10.438696 -5.403638,-5.177014 -10.331901,-3.584052 -14.316184,4.627416 -1.581646,3.25972 -2.596236,6.378982 -2.254644,6.931691 1.0246,1.657836 7.589992,1.140767 14.226182,-1.120411 z m 82.102915,-1.045815 c 1.97939,-2.385018 -0.12733,-8.173258 -4.21676,-11.585361 -3.83061,-3.196194 -12.72905,-3.454016 -13.89994,-0.402736 -1.37275,3.577343 3.53896,11.056004 8.13812,12.391255 6.01741,1.747003 8.26962,1.656008 9.97858,-0.403158 z"
       id="path984" />
  </g>
</svg>
