<?xml version="1.0" encoding="UTF-8" standalone="no"?>
<!-- Created with Inkscape (http://www.inkscape.org/) -->

<svg
   version="1.1"
   id="svg42"
   width="232"
   height="116"
   viewBox="0 0 232 116"
   xmlns="http://www.w3.org/2000/svg"
   xmlns:svg="http://www.w3.org/2000/svg">
  <defs
     id="defs46" />
  <g
     id="g48">
    <path
       style="fill:#000000;stroke-width:1.33333"
       d="m 217.33333,106.66667 c -1.1,-0.71088 -6.05,-1.30169 -11,-1.31292 -4.95,-0.0112 -9,-0.46091 -9,-0.99928 0,-0.53838 1.59722,-4.28838 3.54936,-8.333337 1.95215,-4.044957 3.98843,-8.294289 4.52507,-9.442962 0.53663,-1.148672 1.18941,-14.048672 1.45064,-28.666667 l 0.47493,-26.578171 -3.72882,-7.233308 c -3.90731,-7.579518 -4.31683,-13.126952 -0.90619,-12.275035 5.97167,1.491613 13.05093,1.659407 13.87328,0.328829 1.10191,-1.782921 5.63521,-1.976575 6.68043,-0.285376 0.628,1.016128 -4.15192,12.329346 -8.63892,20.446798 -0.70388,1.273383 -1.27978,14.047286 -1.27978,28.386451 0,23.110327 0.29179,26.643152 2.56922,31.107289 1.41306,2.769843 3.51306,5.819407 4.66666,6.776808 2.50054,2.075251 2.8375,9.423281 0.43079,9.393791 -0.91667,-0.0112 -2.56667,-0.60204 -3.66667,-1.31291 z m -52.88064,-1.67954 c -0.34429,-0.55709 0.63064,-2.61042 2.16651,-4.56296 5.68917,-7.232605 8.28617,-15.413754 9.44617,-29.757503 C 178.13675,45.053232 177.72704,36.80304 174,29.077259 c -1.83333,-3.800318 -3.33333,-7.961966 -3.33333,-9.248107 0,-1.286143 -0.6,-2.70926 -1.33334,-3.162485 C 168.6,16.213441 168,14.308053 168,12.432469 c 0,-2.9564154 0.39916,-3.2714606 3,-2.367785 3.37095,1.171254 13.98563,1.525183 16.92081,0.564196 3.30204,-1.0810989 3.04839,3.493425 -0.71537,12.901357 -3.25648,8.139918 -3.70917,11.335318 -4.49944,31.760127 -0.9012,23.292311 -0.15453,30.596515 4.43417,43.376303 1.1849,3.300003 2.16308,6.300003 2.17376,6.666663 0.0317,1.09228 -24.18058,0.75511 -24.86124,-0.3462 z M 98.666667,69.70682 V 35.41364 L 94.379683,23.104915 c -2.357842,-6.769798 -4.0028,-12.592909 -3.655463,-12.940246 1.080219,-1.0802187 19.43946,-1.2995779 21.13365,-0.2525083 1.04862,0.6480813 1.16262,1.5284903 0.32887,2.5398763 -0.70185,0.85138 -2.78351,6.347963 -4.62593,12.21463 -3.06318,9.75386 -3.42433,13.515164 -4.22026,43.952989 -0.47873,18.307477 -1.16161,33.757474 -1.51751,34.333334 -2.546851,4.1209 -3.156373,-2.29922 -3.156373,-33.24617 z M 37.403232,68.0432 c -1.127164,-0.696625 -1.384127,-2.428208 -0.773148,-5.209973 0.890047,-4.052359 0.786148,-4.16656 -3.790704,-4.16656 -3.014429,0 -7.485443,1.676094 -12.439273,4.663238 -9.578275,5.77567 -11.7137487,5.980966 -10.4375259,1.003428 1.9144219,-7.466652 2.2406769,-14.795518 0.7801309,-17.524574 -2.2442608,-4.19344 1.183449,-3.668226 8.562812,1.312048 4.455272,3.006825 7.807417,4.178258 12.400176,4.333333 L 38,52.666667 l 0.41382,-5 c 0.227601,-2.75 0.671772,-5 0.987045,-5 0.315275,0 4.405528,2.623697 9.089452,5.830437 l 8.516227,5.830437 18.163395,0.972822 c 9.989866,0.53505 18.163394,1.452486 18.163394,2.038744 0,0.586257 -7.95,1.280846 -17.666666,1.543533 -16.770772,0.453392 -18.038548,0.683968 -25,4.546863 -9.50331,5.273368 -11.226306,5.872712 -13.263435,4.613697 z M 137.84575,67.412139 c -0.4044,-1.053828 -0.0641,-5.14889 0.75614,-9.100136 0.82028,-3.951247 1.10816,-8.18281 0.63976,-9.403472 -1.47164,-3.835026 2.7501,-3.91181 10.26396,-0.18668 3.93858,1.952618 10.16106,4.253034 13.82772,5.112034 8.7068,2.039766 9.04627,5.210787 0.66667,6.227287 -3.3,0.400312 -7.26239,1.424533 -8.80531,2.276049 -1.54292,0.851515 -5.9122,2.772831 -9.7095,4.269588 -5.80262,2.287182 -7.0215,2.415672 -7.63944,0.80533 z"
       id="path1262" />
  </g>
</svg>
